<?xml version="1.0" ?><!DOCTYPE svg  PUBLIC '-//W3C//DTD SVG 1.1//EN'  'http://www.w3.org/Graphics/SVG/1.1/DTD/svg11.dtd'><svg enable-background="new 0 0 50 50" height="50px" id="Layer_1" version="1.1" viewBox="0 0 50 50" width="50px" xml:space="preserve" xmlns="http://www.w3.org/2000/svg" xmlns:xlink="http://www.w3.org/1999/xlink"><rect fill="none" height="50" width="50"/><path d="M10,33H3  c-1.103,0-2-0.898-2-2V19c0-1.102,0.897-2,2-2h7" fill="none" stroke="#000000" stroke-linejoin="round" stroke-miterlimit="10" stroke-width="2.08"/><path d="M9.604,32.43  C9.256,32.129,9,31.391,9,30.754V19.247c0-0.637,0.256-1.388,0.604-1.689L22.274,4.926C23.905,3.27,26,3.898,26,6.327v36.988  c0,2.614-1.896,3.604-3.785,1.686L9.604,32.43z" fill="none" stroke="#000000" stroke-linejoin="round" stroke-miterlimit="10" stroke-width="1.9797"/><path d="  M30.688,19.417C33.167,20.064,35,22.32,35,25s-1.833,4.936-4.312,5.584" fill="none" stroke="#000000" stroke-linecap="round" stroke-linejoin="round" stroke-miterlimit="10" stroke-width="2"/><path d="  M34.92,13.142C39.136,15.417,42,19.873,42,25c0,5.111-2.85,9.557-7.045,11.835" fill="none" stroke="#000000" stroke-linecap="round" stroke-linejoin="round" stroke-miterlimit="10" stroke-width="2"/><path d="  M38.498,7.82c6.276,3.167,10.579,9.668,10.579,17.18c0,7.512-4.303,14.014-10.579,17.18" fill="none" stroke="#000000" stroke-linecap="round" stroke-linejoin="round" stroke-miterlimit="10" stroke-width="2"/></svg>